<svg width="800" height="500" viewBox="0 0 800 500" fill="none" xmlns="http://www.w3.org/2000/svg">
  <style>
    
      .header { font: 600 22px 'Segoe UI', Ubuntu, Sans-Serif; fill: #c9d1d9; }
      .subheader { font: 400 13px 'Segoe UI', Ubuntu, Sans-Serif; fill: #8b949e; }
      
      /* Card Styles */
      .card-bg { fill: #30363d; opacity: 0.15; } 
      .card-label { font: 600 12px 'Segoe UI', Ubuntu, Sans-Serif; fill: #8b949e; text-transform: uppercase; letter-spacing: 0.5px; }
      .card-value { font: 600 20px 'Segoe UI', Ubuntu, Sans-Serif; fill: #c9d1d9; }
      .card-sub { font: 400 11px 'Segoe UI', Ubuntu, Sans-Serif; fill: #8b949e; }
      
      /* Hero Styles */
      .hero-val { font: 700 32px 'Segoe UI', Ubuntu, Sans-Serif; fill: #58a6ff; }
      .hero-lbl { font: 400 14px 'Segoe UI', Ubuntu, Sans-Serif; fill: #8b949e; }
      
      /* Heatmap Styles */
      .heatmap-lbl { font: 600 12px 'Segoe UI', Ubuntu, Sans-Serif; fill: #c9d1d9; }
      
      /* Animations */
      /* Fixed: Removed 'opacity: 0' default to prevent invisible elements if animation fails */
      .slide-content { 
        animation: slideUp 0.6s cubic-bezier(0.2, 0, 0.2, 1) forwards; 
        transform-origin: center;
      }
      
      @keyframes slideUp { 
        from { opacity: 0; transform: translateY(10px); }
        to { opacity: 1; transform: translateY(0); } 
      }
    
    
  @keyframes fadeIn {
    from { opacity: 0; }
    to { opacity: 1; }
  }
  
  @keyframes slideInLeft {
    from { transform: translateX(-5px); opacity: 0; }
    to { transform: translateX(0); opacity: 1; }
  }
  
  @keyframes slideInUp {
    from { transform: translateY(5px); opacity: 0; }
    to { transform: translateY(0); opacity: 1; }
  }
  
  @keyframes growBar {
    from { transform: scaleX(0); transform-origin: left; }
    to { transform: scaleX(1); transform-origin: left; }
  }
  
  @keyframes pulse {
    0%, 100% { opacity: 1; }
    50% { opacity: 0.7; }
  }
  
  @keyframes popIn {
    0% { transform: scale(0); opacity: 0; }
    80% { transform: scale(1.1); }
    100% { transform: scale(1); opacity: 1; }
  }
  
  .fade-in { animation: fadeIn 1.2s ease-out; }
  .slide-in-left { animation: slideInLeft 1.2s cubic-bezier(0.4, 0, 0.2, 1); }
  .slide-in-up { animation: slideInUp 1.2s cubic-bezier(0.4, 0, 0.2, 1); }
  .grow-bar { animation: growBar 2.4s cubic-bezier(0.4, 0, 0.2, 1); }
  .pulse { animation: pulse 3s ease-in-out infinite; }
  .pop-in { animation: popIn 1.2s cubic-bezier(0.68, -0.55, 0.265, 1.55); }

  </style>
  
  <defs>
    <linearGradient id="gradient-blue" x1="0%" y1="0%" x2="100%" y2="0%">
      <stop offset="0%" stop-color="#0ea5e9" />
      <stop offset="100%" stop-color="#3b82f6" />
    </linearGradient>
    <linearGradient id="gradient-green" x1="0%" y1="0%" x2="100%" y2="0%">
      <stop offset="0%" stop-color="#10b981" />
      <stop offset="100%" stop-color="#059669" />
    </linearGradient>
    <linearGradient id="gradient-purple" x1="0%" y1="0%" x2="100%" y2="0%">
      <stop offset="0%" stop-color="#a855f7" />
      <stop offset="100%" stop-color="#8b5cf6" />
    </linearGradient>
    <linearGradient id="gradient-orange" x1="0%" y1="0%" x2="100%" y2="0%">
      <stop offset="0%" stop-color="#fbbf24" />
      <stop offset="100%" stop-color="#f97316" />
    </linearGradient>
    <linearGradient id="gradient-red" x1="0%" y1="0%" x2="100%" y2="0%">
      <stop offset="0%" stop-color="#ef4444" />
      <stop offset="100%" stop-color="#dc2626" />
    </linearGradient>
    <linearGradient id="gradient-yellow" x1="0%" y1="0%" x2="100%" y2="0%">
      <stop offset="0%" stop-color="#fbbf24" />
      <stop offset="100%" stop-color="#f59e0b" />
    </linearGradient>
    <linearGradient id="gradient-pink" x1="0%" y1="0%" x2="100%" y2="0%">
      <stop offset="0%" stop-color="#ec4899" />
      <stop offset="100%" stop-color="#db2777" />
    </linearGradient>
    <linearGradient id="gradient-teal" x1="0%" y1="0%" x2="100%" y2="0%">
      <stop offset="0%" stop-color="#14b8a6" />
      <stop offset="100%" stop-color="#0d9488" />
    </linearGradient>
    <linearGradient id="gradient-indigo" x1="0%" y1="0%" x2="100%" y2="0%">
      <stop offset="0%" stop-color="#6366f1" />
      <stop offset="100%" stop-color="#4f46e5" />
    </linearGradient>
    <linearGradient id="gradient-grey" x1="0%" y1="0%" x2="100%" y2="0%">
      <stop offset="0%" stop-color="#6b7280" />
      <stop offset="100%" stop-color="#4b5563" />
    </linearGradient>
  </defs>
  
  <rect x="0.5" y="0.5" width="799" height="499" rx="4.5" fill="#0d1117" stroke="#30363d"/>
  
  
      <defs>
        <linearGradient id="grad-streak" x1="0%" y1="0%" x2="100%" y2="0%">
          <stop offset="0%" stop-color="#fbbf24" />
          <stop offset="100%" stop-color="#f59e0b" />
        </linearGradient>
      </defs>
      
      <!-- Fixed: Removed animation class from header to ensure visibility -->
      <g>
        <text x="25" y="35" class="header">📊 GitHub Overview</text>
        <text x="25" y="54" class="subheader">Feb 17, 2025 - Feb 17, 2026</text>
      </g>

      
      <g transform="translate(40, 80)">
        <g class="slide-content" style="animation-delay: 0.1s">
          <!-- Total Contributions -->
          <g>
            <text x="0" y="0" class="hero-lbl">Total Contributions</text>
            <text x="0" y="35" class="hero-val">2,151</text>
          </g>
          
          <!-- Vertical Divider -->
          <line x1="220" y1="0" x2="220" y2="45" stroke="#30363d" stroke-width="1" opacity="0.3"/>
          
          <!-- Current Streak -->
          <g transform="translate(260, 0)">
            <text x="0" y="0" class="hero-lbl">Current Streak</text>
            <text x="0" y="35" class="hero-val" fill="url(#grad-streak)">8 days</text>
            <text x="140" y="35" class="card-sub" dy="-5">Best: 25</text>
          </g>
        </g>
      </g>
    
      
        <g transform="translate(40, 150)">
          <g class="slide-content" style="animation-delay: 0.2s">
            <!-- Card Background -->
            <rect width="170" height="75" rx="8" class="card-bg" />
            
            <!-- Icon (Top Right) -->
            <g transform="translate(142, 12) scale(1.2)">
               <path d="M10.5 13.5a3.5 3.5 0 1 1-7 0 3.5 3.5 0 0 1 7 0Z M7 7v1.5M7 15.5V17M3.5 12H2M15.5 12H12" fill="#3b82f6" opacity="0.8"/>
            </g>
            
            <!-- Value & Label -->
            <g transform="translate(16, 28)">
              <text y="0" class="card-label" fill="#3b82f6">Commits</text>
              <text y="24" class="card-value">1,098</text>
              <text y="38" class="card-sub" opacity="0.7">60%</text>
            </g>
          </g>
        </g>
      
        <g transform="translate(230, 150)">
          <g class="slide-content" style="animation-delay: 0.25s">
            <!-- Card Background -->
            <rect width="170" height="75" rx="8" class="card-bg" />
            
            <!-- Icon (Top Right) -->
            <g transform="translate(142, 12) scale(1.2)">
               <path d="M10 4a2 2 0 1 1-4 0 2 2 0 0 1 4 0ZM6 6v3.5a2.5 2.5 0 1 0 5 0V6M4 13.5a2.5 2.5 0 1 1 5 0 2.5 2.5 0 0 1-5 0Zm10-3a2.5 2.5 0 1 1-5 0 2.5 2.5 0 0 1 5 0Z" fill="#10b981" opacity="0.8"/>
            </g>
            
            <!-- Value & Label -->
            <g transform="translate(16, 28)">
              <text y="0" class="card-label" fill="#10b981">Pull Requests</text>
              <text y="24" class="card-value">344</text>
              <text y="38" class="card-sub" opacity="0.7">19%</text>
            </g>
          </g>
        </g>
      
        <g transform="translate(420, 150)">
          <g class="slide-content" style="animation-delay: 0.30000000000000004s">
            <!-- Card Background -->
            <rect width="170" height="75" rx="8" class="card-bg" />
            
            <!-- Icon (Top Right) -->
            <g transform="translate(142, 12) scale(1.2)">
               <path d="M8 1.5c-3.5 0-6.5 3-6.5 6.5s3 6.5 6.5 6.5 6.5-3 6.5-6.5-3-6.5-6.5-6.5ZM8 13a5 5 0 1 1 0-10 5 5 0 0 1 0 10Z M8 5a3 3 0 1 0 0 6 3 3 0 0 0 0-6Z" fill="#8b5cf6" opacity="0.8"/>
            </g>
            
            <!-- Value & Label -->
            <g transform="translate(16, 28)">
              <text y="0" class="card-label" fill="#8b5cf6">Code Reviews</text>
              <text y="24" class="card-value">389</text>
              <text y="38" class="card-sub" opacity="0.7">21%</text>
            </g>
          </g>
        </g>
      
        <g transform="translate(610, 150)">
          <g class="slide-content" style="animation-delay: 0.35000000000000003s">
            <!-- Card Background -->
            <rect width="170" height="75" rx="8" class="card-bg" />
            
            <!-- Icon (Top Right) -->
            <g transform="translate(142, 12) scale(1.2)">
               <path d="M8 9.5a1.5 1.5 0 1 0 0-3 1.5 1.5 0 0 0 0 3ZM8 12.5a1.5 1.5 0 1 0 0-3 1.5 1.5 0 0 0 0 3Z M8 0a8 8 0 1 0 0 16A8 8 0 0 0 8 0ZM1.5 8a6.5 6.5 0 1 1 13 0 6.5 6.5 0 0 1-13 0Z" fill="#f59e0b" opacity="0.8"/>
            </g>
            
            <!-- Value & Label -->
            <g transform="translate(16, 28)">
              <text y="0" class="card-label" fill="#f59e0b">Issues</text>
              <text y="24" class="card-value">2</text>
              <text y="38" class="card-sub" opacity="0.7">0%</text>
            </g>
          </g>
        </g>
      
        <g transform="translate(40, 245)">
          <g class="slide-content" style="animation-delay: 0.4s">
            <!-- Card Background -->
            <rect width="170" height="75" rx="8" class="card-bg" />
            
            <!-- Icon (Top Right) -->
            <g transform="translate(142, 12) scale(1.2)">
               <path d="M2 2.5A2.5 2.5 0 0 1 4.5 0h8.75a.75.75 0 0 1 .75.75v12.5a.75.75 0 0 1-.75.75h-2.5a.75.75 0 1 1 0-1.5h1.75v-2h-8a1 1 0 0 0-.714 1.7.75.75 0 0 1-1.072 1.05A2.495 2.495 0 0 1 2 11.5v-9Zm10.5-1V9h-8c-.356 0-.694.074-1 .208V2.5a1 1 0 0 1 1-1h8Z" fill="#ec4899" opacity="0.8"/>
            </g>
            
            <!-- Value & Label -->
            <g transform="translate(16, 28)">
              <text y="0" class="card-label" fill="#ec4899">Repositories</text>
              <text y="24" class="card-value">142</text>
              <text y="38" class="card-sub" opacity="0.7">Contributed</text>
            </g>
          </g>
        </g>
      
        <g transform="translate(230, 245)">
          <g class="slide-content" style="animation-delay: 0.45s">
            <!-- Card Background -->
            <rect width="170" height="75" rx="8" class="card-bg" />
            
            <!-- Icon (Top Right) -->
            <g transform="translate(142, 12) scale(1.2)">
               <path d="M8 .25a.75.75 0 0 1 .673.418l1.882 3.815 4.21.612a.75.75 0 0 1 .416 1.279l-3.046 2.97.719 4.192a.75.75 0 0 1-1.088.791L8 12.347l-3.766 1.98a.75.75 0 0 1-1.088-.79l.72-4.194L.818 6.374a.75.75 0 0 1 .416-1.28l4.21-.611L7.327.668A.75.75 0 0 1 8 .25Z" fill="#eab308" opacity="0.8"/>
            </g>
            
            <!-- Value & Label -->
            <g transform="translate(16, 28)">
              <text y="0" class="card-label" fill="#eab308">Stars Earned</text>
              <text y="24" class="card-value">12</text>
              <text y="38" class="card-sub" opacity="0.7">Total</text>
            </g>
          </g>
        </g>
      
        <g transform="translate(420, 245)">
          <g class="slide-content" style="animation-delay: 0.5s">
            <!-- Card Background -->
            <rect width="170" height="75" rx="8" class="card-bg" />
            
            <!-- Icon (Top Right) -->
            <g transform="translate(142, 12) scale(1.2)">
               <path d="M5 5.372v.878c0 .414.336.75.75.75h4.5a.75.75 0 0 0 .75-.75v-.878a2.25 2.25 0 1 1 1.5 0v.878a2.25 2.25 0 0 1-2.25 2.25h-1.5v2.128a2.251 2.251 0 1 1-1.5 0V8.5h-1.5A2.25 2.25 0 0 1 3.5 6.25v-.878a2.25 2.25 0 1 1 1.5 0Z" fill="#64748b" opacity="0.8"/>
            </g>
            
            <!-- Value & Label -->
            <g transform="translate(16, 28)">
              <text y="0" class="card-label" fill="#64748b">Forks</text>
              <text y="24" class="card-value">2</text>
              <text y="38" class="card-sub" opacity="0.7">Total</text>
            </g>
          </g>
        </g>
      
        <g transform="translate(610, 245)">
          <g class="slide-content" style="animation-delay: 0.55s">
            <!-- Card Background -->
            <rect width="170" height="75" rx="8" class="card-bg" />
            
            <!-- Icon (Top Right) -->
            <g transform="translate(142, 12) scale(1.2)">
               <path d="M10.561 8.073a6.005 6.005 0 0 1 3.432 5.142.75.75 0 1 1-1.498.07 4.5 4.5 0 0 0-8.99 0 .75.75 0 0 1-1.498-.07 6.004 6.004 0 0 1 3.431-5.142 3.999 3.999 0 1 1 5.123 0ZM10.5 5a2.5 2.5 0 1 0-5 0 2.5 2.5 0 0 0 5 0Z" fill="#06b6d4" opacity="0.8"/>
            </g>
            
            <!-- Value & Label -->
            <g transform="translate(16, 28)">
              <text y="0" class="card-label" fill="#06b6d4">Followers</text>
              <text y="24" class="card-value">7</text>
              <text y="38" class="card-sub" opacity="0.7">Network</text>
            </g>
          </g>
        </g>
      
      
      <g class="slide-content" style="animation-delay: 0.6s">
        <!-- Large Footer Card Background -->
        <rect x="40" y="350" width="740" height="120" rx="8" class="card-bg" />
        
        <!-- Heatmap Container -->
        <g>
          <text x="55" y="375" class="heatmap-lbl">Recent Activity (12 Weeks)</text>
          <rect x="40" y="385" width="11" height="11" rx="2" fill="#26a641" opacity="0.9" /><rect x="40" y="399" width="11" height="11" rx="2" fill="#39d353" opacity="0.9" /><rect x="40" y="413" width="11" height="11" rx="2" fill="#006d32" opacity="0.9" /><rect x="40" y="427" width="11" height="11" rx="2" fill="#161b22" opacity="0.9" /><rect x="40" y="441" width="11" height="11" rx="2" fill="#161b22" opacity="0.9" /><rect x="40" y="455" width="11" height="11" rx="2" fill="#006d32" opacity="0.9" /><rect x="40" y="469" width="11" height="11" rx="2" fill="#006d32" opacity="0.9" /><rect x="54" y="385" width="11" height="11" rx="2" fill="#0e4429" opacity="0.9" /><rect x="54" y="399" width="11" height="11" rx="2" fill="#39d353" opacity="0.9" /><rect x="54" y="413" width="11" height="11" rx="2" fill="#006d32" opacity="0.9" /><rect x="54" y="427" width="11" height="11" rx="2" fill="#006d32" opacity="0.9" /><rect x="54" y="441" width="11" height="11" rx="2" fill="#0e4429" opacity="0.9" /><rect x="54" y="455" width="11" height="11" rx="2" fill="#26a641" opacity="0.9" /><rect x="54" y="469" width="11" height="11" rx="2" fill="#006d32" opacity="0.9" /><rect x="68" y="385" width="11" height="11" rx="2" fill="#26a641" opacity="0.9" /><rect x="68" y="399" width="11" height="11" rx="2" fill="#0e4429" opacity="0.9" /><rect x="68" y="413" width="11" height="11" rx="2" fill="#006d32" opacity="0.9" /><rect x="68" y="427" width="11" height="11" rx="2" fill="#161b22" opacity="0.9" /><rect x="68" y="441" width="11" height="11" rx="2" fill="#161b22" opacity="0.9" /><rect x="68" y="455" width="11" height="11" rx="2" fill="#0e4429" opacity="0.9" /><rect x="68" y="469" width="11" height="11" rx="2" fill="#39d353" opacity="0.9" /><rect x="82" y="385" width="11" height="11" rx="2" fill="#39d353" opacity="0.9" /><rect x="82" y="399" width="11" height="11" rx="2" fill="#006d32" opacity="0.9" /><rect x="82" y="413" width="11" height="11" rx="2" fill="#39d353" opacity="0.9" /><rect x="82" y="427" width="11" height="11" rx="2" fill="#0e4429" opacity="0.9" /><rect x="82" y="441" width="11" height="11" rx="2" fill="#006d32" opacity="0.9" /><rect x="82" y="455" width="11" height="11" rx="2" fill="#006d32" opacity="0.9" /><rect x="82" y="469" width="11" height="11" rx="2" fill="#0e4429" opacity="0.9" /><rect x="96" y="385" width="11" height="11" rx="2" fill="#39d353" opacity="0.9" /><rect x="96" y="399" width="11" height="11" rx="2" fill="#0e4429" opacity="0.9" /><rect x="96" y="413" width="11" height="11" rx="2" fill="#39d353" opacity="0.9" /><rect x="96" y="427" width="11" height="11" rx="2" fill="#006d32" opacity="0.9" /><rect x="96" y="441" width="11" height="11" rx="2" fill="#39d353" opacity="0.9" /><rect x="96" y="455" width="11" height="11" rx="2" fill="#39d353" opacity="0.9" /><rect x="96" y="469" width="11" height="11" rx="2" fill="#006d32" opacity="0.9" /><rect x="110" y="385" width="11" height="11" rx="2" fill="#39d353" opacity="0.9" /><rect x="110" y="399" width="11" height="11" rx="2" fill="#26a641" opacity="0.9" /><rect x="110" y="413" width="11" height="11" rx="2" fill="#26a641" opacity="0.9" /><rect x="110" y="427" width="11" height="11" rx="2" fill="#006d32" opacity="0.9" /><rect x="110" y="441" width="11" height="11" rx="2" fill="#39d353" opacity="0.9" /><rect x="110" y="455" width="11" height="11" rx="2" fill="#0e4429" opacity="0.9" /><rect x="110" y="469" width="11" height="11" rx="2" fill="#0e4429" opacity="0.9" /><rect x="124" y="385" width="11" height="11" rx="2" fill="#0e4429" opacity="0.9" /><rect x="124" y="399" width="11" height="11" rx="2" fill="#006d32" opacity="0.9" /><rect x="124" y="413" width="11" height="11" rx="2" fill="#161b22" opacity="0.9" /><rect x="124" y="427" width="11" height="11" rx="2" fill="#0e4429" opacity="0.9" /><rect x="124" y="441" width="11" height="11" rx="2" fill="#161b22" opacity="0.9" /><rect x="124" y="455" width="11" height="11" rx="2" fill="#161b22" opacity="0.9" /><rect x="124" y="469" width="11" height="11" rx="2" fill="#26a641" opacity="0.9" /><rect x="138" y="385" width="11" height="11" rx="2" fill="#26a641" opacity="0.9" /><rect x="138" y="399" width="11" height="11" rx="2" fill="#39d353" opacity="0.9" /><rect x="138" y="413" width="11" height="11" rx="2" fill="#006d32" opacity="0.9" /><rect x="138" y="427" width="11" height="11" rx="2" fill="#26a641" opacity="0.9" /><rect x="138" y="441" width="11" height="11" rx="2" fill="#39d353" opacity="0.9" /><rect x="138" y="455" width="11" height="11" rx="2" fill="#39d353" opacity="0.9" /><rect x="138" y="469" width="11" height="11" rx="2" fill="#006d32" opacity="0.9" /><rect x="152" y="385" width="11" height="11" rx="2" fill="#0e4429" opacity="0.9" /><rect x="152" y="399" width="11" height="11" rx="2" fill="#006d32" opacity="0.9" /><rect x="152" y="413" width="11" height="11" rx="2" fill="#39d353" opacity="0.9" /><rect x="152" y="427" width="11" height="11" rx="2" fill="#39d353" opacity="0.9" /><rect x="152" y="441" width="11" height="11" rx="2" fill="#006d32" opacity="0.9" /><rect x="152" y="455" width="11" height="11" rx="2" fill="#006d32" opacity="0.9" /><rect x="152" y="469" width="11" height="11" rx="2" fill="#26a641" opacity="0.9" /><rect x="166" y="385" width="11" height="11" rx="2" fill="#39d353" opacity="0.9" /><rect x="166" y="399" width="11" height="11" rx="2" fill="#39d353" opacity="0.9" /><rect x="166" y="413" width="11" height="11" rx="2" fill="#26a641" opacity="0.9" /><rect x="166" y="427" width="11" height="11" rx="2" fill="#161b22" opacity="0.9" /><rect x="166" y="441" width="11" height="11" rx="2" fill="#161b22" opacity="0.9" /><rect x="166" y="455" width="11" height="11" rx="2" fill="#39d353" opacity="0.9" /><rect x="166" y="469" width="11" height="11" rx="2" fill="#26a641" opacity="0.9" /><rect x="180" y="385" width="11" height="11" rx="2" fill="#39d353" opacity="0.9" /><rect x="180" y="399" width="11" height="11" rx="2" fill="#26a641" opacity="0.9" /><rect x="180" y="413" width="11" height="11" rx="2" fill="#006d32" opacity="0.9" /><rect x="180" y="427" width="11" height="11" rx="2" fill="#161b22" opacity="0.9" /><rect x="180" y="441" width="11" height="11" rx="2" fill="#161b22" opacity="0.9" /><rect x="180" y="455" width="11" height="11" rx="2" fill="#26a641" opacity="0.9" /><rect x="180" y="469" width="11" height="11" rx="2" fill="#0e4429" opacity="0.9" /><rect x="194" y="385" width="11" height="11" rx="2" fill="#39d353" opacity="0.9" /><rect x="194" y="399" width="11" height="11" rx="2" fill="#26a641" opacity="0.9" /><rect x="194" y="413" width="11" height="11" rx="2" fill="#39d353" opacity="0.9" /><rect x="194" y="427" width="11" height="11" rx="2" fill="#006d32" opacity="0.9" /><rect x="194" y="441" width="11" height="11" rx="2" fill="#006d32" opacity="0.9" /><rect x="194" y="455" width="11" height="11" rx="2" fill="#39d353" opacity="0.9" /><rect x="194" y="469" width="11" height="11" rx="2" fill="#161b22" opacity="0.9" />
        </g>

        <!-- Mini Stats Right Side -->
        <g transform="translate(550, 380)">
           <text x="0" y="0" class="card-label">Average</text>
           <text x="0" y="25" class="card-value">3 / day</text>
           
           <text x="0" y="60" class="card-label">Contributed To</text>
           <text x="0" y="85" class="card-value">122 Repos</text>
        </g>
      </g>
    
    
</svg>